<svg xmlns="http://www.w3.org/2000/svg" viewBox="0 0 567 500"><defs><style>.cls-1{fill:#e3e0db;stroke:#000;}.cls-1,.cls-12,.cls-13,.cls-6,.cls-7{stroke-miterlimit:10;}.cls-2{fill:#ffac9d;}.cls-3{fill:#cc887f;}.cls-4{fill:#d68950;}.cls-5{fill:#ffa65b;}.cls-12,.cls-6,.cls-7{fill:none;}.cls-12,.cls-13,.cls-6,.cls-7{stroke:#765e69;}.cls-6{stroke-width:1.83px;}.cls-8{fill:#d35450;}.cls-9{fill:#fc6a5a;}.cls-10{fill:#fff;}.cls-11{fill:#352c38;}.cls-12,.cls-13{stroke-width:1.43px;}.cls-13{fill:#a9c7db;}</style></defs><g id="OBJECTS"><rect class="cls-1" x="-52.92" y="-46.14" width="672.84" height="592.29"/><path class="cls-2" d="M323.27,309.78C307,300.9,311.43,258,311.43,258l-24.37,1.57V258l-2.61.78-2.61-.78v1.56L257.47,258s4.44,42.91-11.83,51.79S133.2,323.09,143.55,422.21h281.8C435.7,323.09,339.54,318.65,323.27,309.78Z"/><path class="cls-3" d="M254.05,298.71q29.2-4.35,58.37-9c-2.74-14.8-1-31.74-1-31.74l-24.37,1.57V258l-2.61.78-2.61-.78v1.56L257.47,258S260,282.92,254.05,298.71Z"/><path class="cls-4" d="M328.33,309c-8.12-4.44-11.12-17.29-12.08-29.13-7.15,2.7-21.45,4.28-30.63,4.28-11,0-25-2.26-32.85-6-.79,12.29-3.67,26.22-12.2,30.88-16.38,8.93-109.36,13.4-98.93,113.19h283.7C435.77,322.42,344.71,318,328.33,309Z"/><path class="cls-5" d="M284.32,332.14c22.37,0,42.44-7.44,56.15-19.21-5-1.41-8.94-2.62-11.32-3.91-8.12-4.44-11.12-17.29-12.07-29.13-7.16,2.7-21.46,4.28-30.64,4.28-11,0-25-2.26-32.84-6-.8,12.29-3.68,26.22-12.21,30.88-2.58,1.41-7.08,2.71-12.78,4.29C242.31,324.86,262.19,332.14,284.32,332.14Z"/><polyline class="cls-6" points="180.58 410.4 196.41 395.45 211.35 410.4"/><polyline class="cls-6" points="358.63 409.81 376.68 395.45 391.63 410.4"/><polyline class="cls-6" points="328.86 409.9 345.9 395.45 360.85 410.4"/><polyline class="cls-6" points="300.17 410.4 316 395.45 330.95 410.4"/><polyline class="cls-6" points="268.76 410.09 286.1 395.45 302.29 410"/><polyline class="cls-6" points="240.38 410.4 256.2 395.45 271.15 410.4"/><polyline class="cls-6" points="209.22 410.09 226.3 395.45 242.28 409.81"/><polyline class="cls-7" points="180.58 395.69 196.41 380.74 211.35 395.69"/><polyline class="cls-7" points="358.63 395.1 376.68 380.74 391.63 395.69"/><polyline class="cls-7" points="328.86 395.19 345.9 380.74 360.85 395.69"/><polyline class="cls-7" points="300.17 395.69 316 380.74 330.95 395.69"/><polyline class="cls-7" points="268.76 395.38 286.1 380.74 302.29 395.29"/><polyline class="cls-7" points="240.38 395.69 256.2 380.74 271.15 395.69"/><polyline class="cls-7" points="209.22 395.38 226.3 380.74 242.28 395.1"/><path class="cls-5" d="M185.37,386.34c0-20.34-2.45-39-6.53-53.4-23,14.95-42.25,40.92-37.2,89.27h41A228.69,228.69,0,0,0,185.37,386.34Z"/><path class="cls-5" d="M387.83,332.15c-4.21,14.54-6.76,33.47-6.76,54.19a227.44,227.44,0,0,0,2.73,35.87h41.54C430.49,373,410.93,347,387.83,332.15Z"/><path class="cls-3" d="M236.8,195.18c-4.8-14.87-16.15-11.43-17.21-11.07-1.12.13-12.85,1.87-10.83,17.37s11.09,24,19.57,21.56C237.06,221.65,241.62,210.15,236.8,195.18Z"/><path class="cls-3" d="M332.54,195.18c4.8-14.87,16.15-11.43,17.21-11.07,1.12.13,12.86,1.87,10.83,17.37S349.49,225.52,341,223C332.28,221.65,327.72,210.15,332.54,195.18Z"/><path class="cls-2" d="M225.17,172.65c5.94-65.22,55.52-61.56,60.19-61.07,4.68-.49,54.26-4.15,60.2,61.07,6,65.6-23.24,108.45-60.2,106.09C248.41,281.1,219.19,238.25,225.17,172.65Z"/><path class="cls-8" d="M222.79,126.84s-13.43,8.64-3.84,38.38l5.76,33.57,4.79,1s-1.92-50.84,14.39-62.35S222.79,126.84,222.79,126.84Z"/><path class="cls-9" d="M325.43,131.64s-64.27,37.41-98.81,7.68,1.92-45.09,16.31-43.17c0,0-4.79-16.31,14.39-18.23s15.35,17.27,44.13,17.27,43.17,1.92,40.29,25.9c0,0,14.39-8.63,19.19,7.67s-13.43,70-13.43,70l-1.92,8.64h-4.8V161.38S322.56,167.14,325.43,131.64Z"/><path class="cls-8" d="M360.93,128.76c-4.8-16.3-19.19-7.67-19.19-7.67,1.66-13.81-2.42-20.3-11.66-23.32-1.93,13.82-6.37,27.18-14.36,38.84,6-2.83,9.71-5,9.71-5-2.87,35.5,15.35,29.74,15.35,29.74v46.05h4.8l1.92-8.64S365.72,145.07,360.93,128.76Z"/><path class="cls-3" d="M293.91,180.3c.58,3,1.09,6,1.55,9.08s.87,6.07,1.25,9.11.74,6.09,1.05,9.14.6,6.1.86,9.16l0,.41-.32.21c-1.92,1.24-3.86,2.47-5.8,3.68s-3.91,2.41-5.91,3.54c1.78-1.45,3.62-2.82,5.43-4.23s3.68-2.75,5.53-4.09l-.28.62c-.42-3-.82-6.08-1.16-9.12s-.67-6.1-1-9.15-.55-6.1-.77-9.16S294,183.37,293.91,180.3Z"/><path class="cls-10" d="M310.64,236.35c-11.81,11.47-31.8,10.84-46.94.61"/><path class="cls-11" d="M332.12,175.46a46.85,46.85,0,0,0-7.44-4.91,21.68,21.68,0,0,0-8.05-2.51,16.44,16.44,0,0,0-8.14,1.37,36.29,36.29,0,0,0-7.47,4.76,19.43,19.43,0,0,1,6.5-6.63,16.29,16.29,0,0,1,4.47-1.85,15.69,15.69,0,0,1,4.88-.34,18.39,18.39,0,0,1,8.9,3.4A22,22,0,0,1,332.12,175.46Z"/><path class="cls-11" d="M270.36,175.46a46.85,46.85,0,0,0-7.44-4.91,21.68,21.68,0,0,0-8.05-2.51,16.46,16.46,0,0,0-8.14,1.37,36.56,36.56,0,0,0-7.47,4.76,19.43,19.43,0,0,1,6.5-6.63,16.29,16.29,0,0,1,4.47-1.85,15.69,15.69,0,0,1,4.88-.34,18.39,18.39,0,0,1,8.9,3.4A22,22,0,0,1,270.36,175.46Z"/><path class="cls-12" d="M220.11,182.34l16.69,12.84,41.93,1.32s10.79-15.15,19.8,0h43.22l13-12.17"/><circle class="cls-13" cx="257.12" cy="196.5" r="21.61"/><circle class="cls-13" cx="320.14" cy="196.5" r="21.61"/><path class="cls-11" d="M268.4,199.09a19.51,19.51,0,0,0-1.22-4.07,13.57,13.57,0,0,0-2.09-3.6,8.82,8.82,0,0,0-7-3.38,9.16,9.16,0,0,0-2,.13,8.59,8.59,0,0,0-1.93.51,7.6,7.6,0,0,0-3.08,2.46,11.44,11.44,0,0,0-1.71,3.75,18.35,18.35,0,0,0-.6,4.2,12.83,12.83,0,0,1,1.54-8.47,8.13,8.13,0,0,1,3.4-3,9.58,9.58,0,0,1,2.19-.63,10.66,10.66,0,0,1,2.25-.16,9.11,9.11,0,0,1,3.33.6,4.36,4.36,0,0,1,1,.45,9.35,9.35,0,0,1,3.37,3,12.58,12.58,0,0,1,1.9,4A16.39,16.39,0,0,1,268.4,199.09Z"/><path class="cls-11" d="M323.9,198.2a20.88,20.88,0,0,0-1.22-4.08,13.79,13.79,0,0,0-2.09-3.59,8.82,8.82,0,0,0-7-3.38,10.13,10.13,0,0,0-4,.63,7.54,7.54,0,0,0-3.08,2.47,11.19,11.19,0,0,0-1.71,3.74,18,18,0,0,0-.6,4.21,12.81,12.81,0,0,1,1.54-8.48,8.13,8.13,0,0,1,3.4-3,9.93,9.93,0,0,1,2.19-.62,10.52,10.52,0,0,1,2.24-.17,12.32,12.32,0,0,1,2.25.26,8.49,8.49,0,0,1,1.08.35,3.92,3.92,0,0,1,1,.45,9.32,9.32,0,0,1,3.37,3,13.09,13.09,0,0,1,1.9,4A16.82,16.82,0,0,1,323.9,198.2Z"/></g></svg>