<svg xmlns="http://www.w3.org/2000/svg" viewBox="0 0 567 500"><defs><style>.cls-1{fill:#e3e0db;stroke:#000;stroke-miterlimit:10;}.cls-2{fill:#ffac9d;}.cls-3{fill:#cc887f;}.cls-4{fill:#7aa8ce;}.cls-5{fill:#6f96bd;}.cls-6{fill:#ffa65b;}.cls-7{fill:#d68950;}.cls-8{fill:#fff;}.cls-10,.cls-9{fill:#352c38;}.cls-10{opacity:0.3;}.cls-11{fill:#965450;}.cls-12{fill:#76413b;}</style></defs><g id="OBJECTS"><rect class="cls-1" x="-52.92" y="-46.14" width="672.84" height="592.29"/><path class="cls-2" d="M322.41,305.58c-16.31-8.9-11.86-51.91-11.86-51.91l-24.44,1.57v-1.57l-2.61.79-2.61-.79v1.57l-24.44-1.57s4.45,43-11.86,51.91S131.88,318.93,142.26,418.29H424.74C435.12,318.93,338.72,314.48,322.41,305.58Z"/><path class="cls-3" d="M253,294.48q29.27-4.35,58.5-9c-2.74-14.83-1-31.81-1-31.81l-24.44,1.57v-1.57l-2.61.79-2.61-.79v1.57l-24.44-1.57S259,278.66,253,294.48Z"/><path class="cls-4" d="M337.88,310.52c-14.49,8.46-33.78,13.63-55,13.63-21,0-40.15-5.08-54.6-13.41-32.28,8.7-94.5,26.72-86.05,107.55H424.74C433.26,336.77,369.92,319.14,337.88,310.52Z"/><path class="cls-5" d="M404.41,344.63c-13,6.22-27.31,8.33-41.53,12.75q-30.13,9.38-60.49,18.05c-40.55,11.62-81.28,22.54-122,33.48l-34.84,9.38H424.74C428.37,383.53,418.92,360.41,404.41,344.63Z"/><path class="cls-6" d="M217,314c-33.52,10.11-82.22,32.22-74.69,104.34H257.37Z"/><path class="cls-6" d="M349.24,313.71,330.88,418.29h93.86C432.34,345.58,382.78,323.71,349.24,313.71Z"/><path class="cls-7" d="M247.24,418.29h10.13L217,314a164.79,164.79,0,0,0-27.67,10.85Z"/><path class="cls-7" d="M349.24,313.71,330.88,418.29h8.44l48.41-87.68C375.06,322.32,361.14,317.26,349.24,313.71Z"/><path class="cls-3" d="M235.73,190.71c-4.81-14.91-16.19-11.46-17.25-11.1-1.12.13-12.89,1.88-10.85,17.41s11.11,24.1,19.61,21.61C236,217.24,240.57,205.71,235.73,190.71Z"/><path class="cls-3" d="M331.71,190.71c4.8-14.91,16.19-11.46,17.25-11.1,1.12.13,12.88,1.88,10.85,17.41s-11.11,24.1-19.61,21.61C331.45,217.24,326.87,205.71,331.71,190.71Z"/><path class="cls-2" d="M224.07,168.12c6-65.38,55.66-61.71,60.34-61.22,4.69-.49,54.39-4.16,60.35,61.22,6,65.76-23.3,108.71-60.35,106.35C247.37,276.83,218.08,233.88,224.07,168.12Z"/><path class="cls-3" d="M293,198.88a80.5,80.5,0,0,1,2.79,9.5c.37,1.61.75,3.21,1.05,4.83s.61,3.23.87,4.86l.06.38-.23.22q-1.95,1.89-3.94,3.73c-1.33,1.21-2.67,2.44-4.06,3.6,1.12-1.43,2.29-2.81,3.46-4.19s2.37-2.72,3.58-4.06l-.17.59c-.42-1.59-.81-3.19-1.16-4.8s-.67-3.22-1-4.84A84.49,84.49,0,0,1,293,198.88Z"/><path class="cls-8" d="M309.75,237.74c-11.83,11.51-31.87,10.87-47.05.62"/><path class="cls-9" d="M331.28,176.71a47.07,47.07,0,0,0-7.45-4.93,21.85,21.85,0,0,0-8.07-2.52,16.53,16.53,0,0,0-8.16,1.39,36,36,0,0,0-7.49,4.76,19.37,19.37,0,0,1,6.51-6.63,15.22,15.22,0,0,1,9.38-2.21,18.72,18.72,0,0,1,8.92,3.41A22.05,22.05,0,0,1,331.28,176.71Z"/><path class="cls-9" d="M269.37,176.71a47.07,47.07,0,0,0-7.45-4.93,21.85,21.85,0,0,0-8.07-2.52,16.53,16.53,0,0,0-8.16,1.39,36,36,0,0,0-7.49,4.76,19.31,19.31,0,0,1,6.52-6.63,15.16,15.16,0,0,1,9.37-2.21A18.68,18.68,0,0,1,263,170,22.05,22.05,0,0,1,269.37,176.71Z"/><path class="cls-9" d="M267.41,200.4a19.69,19.69,0,0,0-1.22-4.09,13.76,13.76,0,0,0-2.1-3.6,8.85,8.85,0,0,0-7-3.39,9.81,9.81,0,0,0-2,.12,9.43,9.43,0,0,0-1.94.52,7.54,7.54,0,0,0-3.08,2.47,11.33,11.33,0,0,0-1.71,3.75,18,18,0,0,0-.61,4.22,12.83,12.83,0,0,1,1.55-8.49,8.08,8.08,0,0,1,3.4-3,9.52,9.52,0,0,1,2.2-.63,10,10,0,0,1,2.25-.16,11.5,11.5,0,0,1,2.25.26,10.56,10.56,0,0,1,1.09.34,4.62,4.62,0,0,1,1,.45,9.28,9.28,0,0,1,3.37,3,12.78,12.78,0,0,1,1.91,4A16.9,16.9,0,0,1,267.41,200.4Z"/><path class="cls-9" d="M323,199.5a19.42,19.42,0,0,0-1.22-4.08,13.66,13.66,0,0,0-2.1-3.61,8.83,8.83,0,0,0-7-3.39,10.48,10.48,0,0,0-4,.64,7.51,7.51,0,0,0-3.09,2.47,11.29,11.29,0,0,0-1.71,3.76,17.91,17.91,0,0,0-.61,4.21,12.89,12.89,0,0,1,1.55-8.49,8.11,8.11,0,0,1,3.41-3,9.55,9.55,0,0,1,2.19-.62,10,10,0,0,1,2.25-.17,11.42,11.42,0,0,1,2.25.26,10.56,10.56,0,0,1,1.09.34,4.44,4.44,0,0,1,1,.45,9.29,9.29,0,0,1,3.37,3,12.78,12.78,0,0,1,1.91,4A16.12,16.12,0,0,1,323,199.5Z"/><path class="cls-10" d="M195.08,177.92c2.8-2.41,6.43-5.08,8.84-9.44a31.51,31.51,0,0,0,1.53-3.43c.29-1.23.69-2.48.9-3.77s.36-2.61.4-3.95,0-2.72,0-4.11-.22-2.66-.33-4l-.08-1a2.38,2.38,0,0,1,0-.38v-.49c0-.67,0-1.34.09-2a76.94,76.94,0,0,1,.95-8.28,42.25,42.25,0,0,1,2.22-8.16,20.57,20.57,0,0,1,.86-1.91,13.19,13.19,0,0,1,1-1.72l.5-.79.74-.85.37-.43.1-.11v0l.15-.14.84-.77a29,29,0,0,1,4.71-3.28c0-1.43,0-2.85,0-4.28a33.84,33.84,0,0,0-7.25,4.84l-.83.78-.21.19-.19.2-.14.16-.36.43-.74.87-.74,1.11a17.6,17.6,0,0,0-1.22,2.21,21.14,21.14,0,0,0-.93,2.21,45.76,45.76,0,0,0-2.23,8.91,68.72,68.72,0,0,0-.78,8.7c0,.71,0,1.43,0,2.14v.54c0,.09,0,.62,0,.65l.12,1c.16,1.35.32,2.69.47,4,.31,5,.07,10.07-1.95,14s-5.16,6.74-7.85,9.4a35.59,35.59,0,0,0-6.24,7.65,21.61,21.61,0,0,0-1.64,3.26,17.87,17.87,0,0,0-.94,2.52c-.44,1.38-.67,2.12-.67,2.12l.87-2a29.56,29.56,0,0,1,3-5.44A34,34,0,0,1,195.08,177.92Z"/><path class="cls-11" d="M318.17,111.94s21.8.65,28.85,27.57-.64,32.06-.64,53.85c0,0,0,13.47-3.21,17.95l-4.48-44.23S308.55,151.05,318.17,111.94Z"/><path class="cls-12" d="M278.85,75.87a34.35,34.35,0,0,0-11.67,0,24.53,24.53,0,0,0-8.14,3,27.59,27.59,0,0,0-6.84,5.87c-4,4.58-7,9.84-10.57,14.53a35.68,35.68,0,0,1-13.27,11.24c-1.35.67-2.62,1.13-4.14,1.72a45.19,45.19,0,0,0-4.38,1.84,35.14,35.14,0,0,0-8.18,5.32l-.83.78-.21.19-.19.2,0,0-.1.11-.36.43-.74.87-.74,1.11a17.6,17.6,0,0,0-1.22,2.21,21.14,21.14,0,0,0-.93,2.21,45.76,45.76,0,0,0-2.23,8.91,68.72,68.72,0,0,0-.78,8.7c0,.71,0,1.43,0,2.14v.54c0,.09,0,.62,0,.65l.12,1c.16,1.35.32,2.69.47,4,.31,5,.07,10.07-1.95,14s-5.16,6.74-7.85,9.4a35.59,35.59,0,0,0-6.24,7.65,21.61,21.61,0,0,0-1.64,3.26,17.87,17.87,0,0,0-.94,2.52c-.44,1.38-.67,2.12-.67,2.12l.87-2a29.56,29.56,0,0,1,3-5.44,34,34,0,0,1,6.58-7c2.8-2.41,6.43-5.08,8.84-9.44a31.51,31.51,0,0,0,1.53-3.43c.29-1.23.69-2.48.9-3.77s.36-2.61.4-3.95,0-2.72,0-4.11-.22-2.66-.33-4l-.08-1a2.38,2.38,0,0,1,0-.38v-.49c0-.67,0-1.34.09-2a76.94,76.94,0,0,1,.95-8.28,42.25,42.25,0,0,1,2.22-8.16,20.57,20.57,0,0,1,.86-1.91,13.19,13.19,0,0,1,1-1.72l.5-.79.74-.85.37-.43.1-.11v0l.15-.14.84-.77a30.08,30.08,0,0,1,5.41-3.68c-.89.57-1.73,1.15-2.51,1.76-.4.3-.8.62-1.18,1-.15.13-.31.25-.45.38-.52.47-1,1-1.5,1.49-7,7.45-6.14,26.28-6.06,26.77,5.13,29.49-12.82,23.72-18.59,44.88s22.78,34.88,16,42.31c-12.82,14.1-19.24-4.49-19.24-4.49-2.56,10.9,9,26.93,23.08,25,13.35-1.82,27.84-12.26,22.83-34l0,.11,1.49,3.57c.45,1.12,1,2.23,1.37,3.37L236,234l.69,3.53c.07,1.18.24,2.38.25,3.56a26.4,26.4,0,0,1-.26,3.56,18,18,0,0,1-.8,3.47,19.39,19.39,0,0,1-1.32,3.33,22.4,22.4,0,0,1-4.24,5.89,27.83,27.83,0,0,1-5.83,4.6,35.23,35.23,0,0,1-6.88,3.16,33.37,33.37,0,0,0,7.35-2.26,28.6,28.6,0,0,0,6.63-4.13,24.8,24.8,0,0,0,5.22-6,24.29,24.29,0,0,0,3-7.49,30,30,0,0,0,.59-4c.09-1.35,0-2.7,0-4s-.32-2.67-.51-4-.63-2.59-1-3.9-.86-2.51-1.29-3.77l-1.27-3.54c-.2-.6-.45-1.21-.62-1.79l-.36-1.63a15.13,15.13,0,0,1-.45-3.22,8.18,8.18,0,0,1,1.87-5.45c1.28-1.67,3.28-3.29,5.15-5.27a30.84,30.84,0,0,0,2.69-3.16,24.26,24.26,0,0,0,2.19-3.66l.92-1.93.66-2c.2-.67.46-1.34.61-2l.38-2,.36-2,.14-2,.24-3.87.21-3.81a31,31,0,0,1,.29-3.71,51.63,51.63,0,0,1,1.28-7,28.66,28.66,0,0,1,1-3.47l1.18-3.17,1.15-1.67,1.44-1.65c.55-.46,1.08-1,1.64-1.42s1.19-.82,1.82-1.18,1.31-.66,2-.94l2.14-.71,2.25-.47c.77-.12,1.56-.17,2.34-.26l5.14-.56,2.53-.3c.85-.13,1.75-.37,2.62-.55,1.74-.44,3.54-.7,5.21-1.3l5-1.78.65-.33c25.67-5.42,30.74-27.84,30.74-27.84C324.44,104.12,308,77.92,278.85,75.87Zm-37,119.37a22.07,22.07,0,0,1-3.87,5.59c-1.55,1.79-3.52,3.43-5.31,5.84a12.33,12.33,0,0,0-1.22,1.94,9,9,0,0,0-.9,2.19l-.35,1.15-.12,1.17a10.45,10.45,0,0,0-.09,2.29c0,.3.06.6.1.9-3.51-14.88,6.22-14,12.71-23.32l-.23.73Z"/><path class="cls-10" d="M235.64,166.9c-11.58-14.65-16.37-31.06-16.73-48-.63.41-1.26.83-1.82,1.27-.4.3-.8.62-1.18,1-.15.13-.31.25-.45.38-.52.47-1,1-1.5,1.49-7,7.45-6.14,26.28-6.06,26.77,5.13,29.49-12.82,23.72-18.59,44.88s22.78,34.88,16,42.31c-12.82,14.1-19.24-4.49-19.24-4.49-2.56,10.9,9,26.93,23.08,25,13.35-1.82,27.84-12.26,22.83-34l0,.11,1.49,3.57c.45,1.12,1,2.23,1.37,3.37L236,234l.69,3.53c.07,1.18.24,2.38.25,3.56a26.4,26.4,0,0,1-.26,3.56,18,18,0,0,1-.8,3.47,19.39,19.39,0,0,1-1.32,3.33,22.4,22.4,0,0,1-4.24,5.89,27.83,27.83,0,0,1-5.83,4.6,35.23,35.23,0,0,1-6.88,3.16,33.37,33.37,0,0,0,7.35-2.26,28.6,28.6,0,0,0,6.63-4.13,24.8,24.8,0,0,0,5.22-6,24.29,24.29,0,0,0,3-7.49,30,30,0,0,0,.59-4c.09-1.35,0-2.7,0-4s-.32-2.67-.51-4-.63-2.59-1-3.9-.86-2.51-1.29-3.77l-1.27-3.54c-.2-.6-.45-1.21-.62-1.79l-.36-1.63a15.13,15.13,0,0,1-.45-3.22,8.18,8.18,0,0,1,1.87-5.45c1.28-1.67,3.28-3.29,5.15-5.27a30.84,30.84,0,0,0,2.69-3.16,24.26,24.26,0,0,0,2.19-3.66l.92-1.93.66-2c.2-.67.46-1.34.61-2l.38-2,.36-2,.14-2,.24-3.77A101.9,101.9,0,0,1,235.64,166.9Zm6.91,26.82-.72,1.52a22.07,22.07,0,0,1-3.87,5.59c-1.55,1.79-3.52,3.43-5.31,5.84a12.33,12.33,0,0,0-1.22,1.94,9,9,0,0,0-.9,2.19l-.35,1.15-.12,1.17a10.45,10.45,0,0,0-.09,2.29c0,.3.06.6.1.9-3.51-14.88,6.22-14,12.71-23.32Z"/></g></svg>