<svg xmlns="http://www.w3.org/2000/svg" xmlns:xlink="http://www.w3.org/1999/xlink" viewBox="0 0 567 500"><defs><style>.cls-1,.cls-10{fill:none;}.cls-2{fill:#e3e0db;stroke:#000;}.cls-10,.cls-2{stroke-miterlimit:10;}.cls-3{fill:#352c38;}.cls-11,.cls-4{fill:#2a242d;}.cls-5{fill:#965450;}.cls-6{fill:#76413b;}.cls-7{fill:#fc6a5a;}.cls-8{opacity:0.9;}.cls-9{clip-path:url(#clip-path);}.cls-10{stroke:#fdedee;stroke-width:3.06px;}.cls-11{opacity:0.3;}.cls-12{fill:#fff;}</style><clipPath id="clip-path"><path class="cls-1" d="M325.44,301.34c-6.62-3.55-10-12.36-11.64-21.84a139.39,139.39,0,0,1-58.79.13c-1.66,9.43-5,18.17-11.62,21.71-17.2,9.23-118.85,13.84-107.9,116.89H433.34C444.28,315.18,342.64,310.57,325.44,301.34Z"/></clipPath></defs><g id="OBJECTS"><rect class="cls-2" x="-52.92" y="-46.14" width="672.84" height="592.29"/><path class="cls-3" d="M229.28,206.53s-16-3.55-18.35,10.06,7.1,16.57,7.1,16.57-14.2-16-24.26-4.74,6.51,20.72,6.51,20.72-18.35-10.06-21.9,2.36,11.25,20.13,11.25,20.13-16-1.19-15.39,5.91,16,1.19,16,1.19-22.49,4.14-18.94,21.89,21.31,7.7,21.31,7.7-13.62,7.1-10.06,29.59,104.74-23.08,104.74-23.08l1.78-61Z"/><path class="cls-3" d="M346.07,206.53s16-3.55,18.35,10.06-7.1,16.57-7.1,16.57,14.2-16,24.26-4.74-6.51,20.72-6.51,20.72,18.35-10.06,21.9,2.36-11.25,20.13-11.25,20.13,16-1.19,15.39,5.91-16,1.19-16,1.19,22.49,4.14,18.94,21.89-21.3,7.7-21.3,7.7,13.61,7.1,10.06,29.59-104.75-23.08-104.75-23.08l-1.78-61Z"/><path class="cls-4" d="M229.28,206.53s-16-3.55-18.35,10.06,7.1,16.57,7.1,16.57-14.2-16-24.26-4.74,6.51,20.72,6.51,20.72-18.35-10.06-21.9,2.36,11.25,20.13,11.25,20.13-16-1.19-15.39,5.91,16,1.19,16,1.19-22.49,4.14-18.94,21.89,21.31,7.7,21.31,7.7-13.62,7.1-10.06,29.59,104.74-23.08,104.74-23.08l1.78-61Z"/><path class="cls-4" d="M346.07,206.53s16-3.55,18.35,10.06-7.1,16.57-7.1,16.57,14.2-16,24.26-4.74-6.51,20.72-6.51,20.72,18.35-10.06,21.9,2.36-11.25,20.13-11.25,20.13,16-1.19,15.39,5.91-16,1.19-16,1.19,22.49,4.14,18.94,21.89-21.3,7.7-21.3,7.7,13.61,7.1,10.06,29.59-104.75-23.08-104.75-23.08l-1.78-61Z"/><path class="cls-5" d="M324.57,303c-16.68-9.1-12.13-53.08-12.13-53.08l-25,1.61v-1.6l-2.68.8-2.67-.8v1.6l-25-1.61s4.55,44-12.13,53.08S129.77,316.64,140.38,418.23H429.19C439.8,316.64,341.24,312.1,324.57,303Z"/><path class="cls-6" d="M253.63,291.65q29.92-4.45,59.82-9.2c-2.81-15.16-1-32.53-1-32.53l-25,1.61v-1.6l-2.68.8-2.67-.8v1.6l-25-1.61S259.77,275.48,253.63,291.65Z"/><path class="cls-7" d="M325.44,301.34c-6.62-3.55-10-12.36-11.64-21.84a139.39,139.39,0,0,1-58.79.13c-1.66,9.43-5,18.17-11.62,21.71-17.2,9.23-118.85,13.84-107.9,116.89H433.34C444.28,315.18,342.64,310.57,325.44,301.34Z"/><g class="cls-8"><g class="cls-9"><line class="cls-10" x1="117.8" y1="293.33" x2="444.84" y2="293.33"/><line class="cls-10" x1="117.8" y1="309.27" x2="444.84" y2="309.27"/><line class="cls-10" x1="117.8" y1="325.22" x2="444.84" y2="325.22"/><line class="cls-10" x1="117.8" y1="341.17" x2="444.84" y2="341.17"/><line class="cls-10" x1="117.8" y1="357.11" x2="444.84" y2="357.11"/><line class="cls-10" x1="117.8" y1="373.06" x2="444.84" y2="373.06"/><line class="cls-10" x1="117.8" y1="389" x2="444.84" y2="389"/><line class="cls-10" x1="117.8" y1="404.95" x2="444.84" y2="404.95"/></g></g><path class="cls-11" d="M145.17,418.23H433.34c3.59-33.81-4.94-57-18.63-73.28C324.29,367.09,235.28,394.8,145.17,418.23Z"/><path class="cls-6" d="M236,185.55c-4.92-15.24-16.56-11.71-17.65-11.35-1.14.14-13.17,1.92-11.09,17.81s11.36,24.63,20.06,22.09C236.21,212.68,240.89,200.89,236,185.55Z"/><path class="cls-6" d="M334.07,185.55c4.92-15.24,16.55-11.71,17.64-11.35,1.14.14,13.17,1.92,11.09,17.81s-11.36,24.63-20.05,22.09C333.8,212.68,329.13,200.89,334.07,185.55Z"/><path class="cls-5" d="M224,162.46c6.09-66.84,56.91-63.1,61.7-62.59,4.79-.51,55.6-4.25,61.69,62.59,6.13,67.23-23.82,111.15-61.69,108.73C247.84,273.61,217.9,229.69,224,162.46Z"/><path class="cls-6" d="M294.48,193.91a87.72,87.72,0,0,1,2.84,9.72c.37,1.64.75,3.28,1.07,4.93s.62,3.31.89,5l.06.38-.23.22q-2,1.94-4,3.82c-1.37,1.24-2.73,2.49-4.15,3.69,1.14-1.46,2.34-2.87,3.54-4.28s2.43-2.78,3.67-4.15l-.17.6q-.64-2.44-1.19-4.91c-.37-1.64-.68-3.3-1-5A86.42,86.42,0,0,1,294.48,193.91Z"/><path class="cls-12" d="M311.62,233.64c-12.09,11.76-32.59,11.11-48.11.63"/><path class="cls-3" d="M333.64,171.24a48.11,48.11,0,0,0-7.61-5.06,22.44,22.44,0,0,0-8.26-2.58,16.86,16.86,0,0,0-8.36,1.42,36.68,36.68,0,0,0-7.64,4.89,19.87,19.87,0,0,1,6.67-6.76,16.58,16.58,0,0,1,4.57-1.89,16.15,16.15,0,0,1,5-.35,18.88,18.88,0,0,1,9.1,3.48A22.55,22.55,0,0,1,333.64,171.24Z"/><path class="cls-3" d="M270.34,171.24a47.66,47.66,0,0,0-7.61-5.06,22.38,22.38,0,0,0-8.26-2.58,16.86,16.86,0,0,0-8.36,1.42,37,37,0,0,0-7.64,4.89,20,20,0,0,1,6.67-6.76,16.64,16.64,0,0,1,4.58-1.89,16.09,16.09,0,0,1,5-.35,18.91,18.91,0,0,1,9.11,3.48A22.52,22.52,0,0,1,270.34,171.24Z"/><path class="cls-3" d="M268.33,195.46a19.93,19.93,0,0,0-1.24-4.18,13.05,13.05,0,0,0-2.14-3.69,9.07,9.07,0,0,0-7.22-3.47,9.53,9.53,0,0,0-2.07.13,9.11,9.11,0,0,0-2,.52,7.81,7.81,0,0,0-3.16,2.54,10.82,10.82,0,0,0-1.74,3.84,18.23,18.23,0,0,0-.62,4.31,13.18,13.18,0,0,1,1.6-8.67,8.24,8.24,0,0,1,3.47-3.06,11.58,11.58,0,0,1,4.54-.8,9.57,9.57,0,0,1,7.92,4.11A15.24,15.24,0,0,1,268.33,195.46Z"/><path class="cls-3" d="M325.21,194.55a19.84,19.84,0,0,0-1.24-4.19,13.05,13.05,0,0,0-2.14-3.69,9.1,9.1,0,0,0-7.22-3.47,9.49,9.49,0,0,0-2.07.13,9.14,9.14,0,0,0-2,.53,7.71,7.71,0,0,0-3.16,2.53,11,11,0,0,0-1.75,3.84,18.84,18.84,0,0,0-.61,4.32,13.15,13.15,0,0,1,1.6-8.68,8.15,8.15,0,0,1,3.47-3.05,10,10,0,0,1,2.24-.64,10.49,10.49,0,0,1,2.3-.17,9.59,9.59,0,0,1,7.92,4.11A15.33,15.33,0,0,1,325.21,194.55Z"/><path class="cls-3" d="M287.69,99.87s3.14,41-59,58.13c0,0,1.77,20.71-3.55,40.24,0,0-20.13-29-10.66-63.32S271.93,73.1,287.69,99.87Z"/><path class="cls-3" d="M282.79,99.87s-1.17,41,61,58.13c0,0-3,26,2.36,45.57,0,0,21.31-34.33,11.84-68.65S298.55,73.1,282.79,99.87Z"/><path class="cls-4" d="M238.07,155c-9.06-6.32-17.13-14.46-22.54-23.44-.39,1.1-.74,2.2-1.05,3.32-9.47,34.32,10.66,63.32,10.66,63.32,5.32-19.53,3.55-40.24,3.55-40.24C232,157.08,235.11,156.08,238.07,155Z"/></g></svg>